HIERARCHY
ROOT Pelvis
{
	OFFSET 0.000000 0.000000 0.000000
	CHANNELS 6 Xposition Yposition Zposition Zrotation Yrotation Xrotation 
	JOINT Left_hip
	{
		OFFSET 0.069463 -0.088608 -0.009542
		CHANNELS 3 Zrotation Yrotation Xrotation
		JOINT Left_knee
		{
			OFFSET 0.030639 -0.359740 -0.005288
			CHANNELS 3 Zrotation Yrotation Xrotation
			JOINT Left_ankle
			{
				OFFSET -0.011068 -0.376034 -0.042462
				CHANNELS 3 Zrotation Yrotation Xrotation
				JOINT Left_foot
				{
					OFFSET 0.023192 -0.053321 0.111332
					CHANNELS 3 Zrotation Yrotation Xrotation
					End Site
					{
						OFFSET 0.000000 0.000000 0.000000
					}
				}
			}
		}
	}
	JOINT Right_hip
	{
		OFFSET -0.067438 -0.088025 -0.006263
		CHANNELS 3 Zrotation Yrotation Xrotation
		JOINT Right_knee
		{
			OFFSET -0.035962 -0.366229 -0.008063
			CHANNELS 3 Zrotation Yrotation Xrotation
			JOINT Right_ankle
			{
				OFFSET 0.013608 -0.375719 -0.040481
				CHANNELS 3 Zrotation Yrotation Xrotation
				JOINT Right_foot
				{
					OFFSET -0.021034 -0.045527 0.114617
					CHANNELS 3 Zrotation Yrotation Xrotation
					End Site
					{
						OFFSET 0.000000 0.000000 0.000000
					}
				}
			}
		}
	}
	JOINT Spine1
	{
		OFFSET -0.002610 0.101823 -0.019986
		CHANNELS 3 Zrotation Yrotation Xrotation
		JOINT Spine2
		{
			OFFSET 0.004114 0.128714 -0.000938
			CHANNELS 3 Zrotation Yrotation Xrotation
			JOINT Spine3
			{
				OFFSET 0.002191 0.048470 0.027684
				CHANNELS 3 Zrotation Yrotation Xrotation
				JOINT Neck
				{
					OFFSET -0.002856 0.198873 -0.044022
					CHANNELS 3 Zrotation Yrotation Xrotation
					JOINT Head
					{
						OFFSET 0.002981 0.062960 0.049860
						CHANNELS 3 Zrotation Yrotation Xrotation
						End Site
						{
							OFFSET 0.000000 0.000000 0.000000
						}
					}
				}
				JOINT Left_collar
				{
					OFFSET 0.073708 0.112550 -0.033440
					CHANNELS 3 Zrotation Yrotation Xrotation
					JOINT Left_shoulder
					{
						OFFSET 0.083291 0.030786 -0.008013
						CHANNELS 3 Zrotation Yrotation Xrotation
						JOINT Left_elbow
						{
							OFFSET 0.245601 -0.011792 -0.027873
							CHANNELS 3 Zrotation Yrotation Xrotation
							JOINT Left_wrist
							{
								OFFSET 0.232258 0.008622 -0.000487
								CHANNELS 3 Zrotation Yrotation Xrotation
								JOINT Left_palm
								{
									OFFSET 0.077300 -0.009457 -0.012851
									CHANNELS 3 Zrotation Yrotation Xrotation
									End Site
									{
										OFFSET 0.000000 0.000000 0.000000
									}
								}
							}
						}
					}
				}
				JOINT Right_collar
				{
					OFFSET -0.075339 0.110574 -0.037874
					CHANNELS 3 Zrotation Yrotation Xrotation
					JOINT Right_shoulder
					{
						OFFSET -0.086522 0.031207 -0.009986
						CHANNELS 3 Zrotation Yrotation Xrotation
						JOINT Right_elbow
						{
							OFFSET -0.237313 -0.011478 -0.019859
							CHANNELS 3 Zrotation Yrotation Xrotation
							JOINT Right_wrist
							{
								OFFSET -0.237599 0.007976 -0.003742
								CHANNELS 3 Zrotation Yrotation Xrotation
								JOINT Right_palm
								{
									OFFSET -0.076920 -0.006943 -0.009920
									CHANNELS 3 Zrotation Yrotation Xrotation
									End Site
									{
										OFFSET 0.000000 0.000000 0.000000
									}
								}
							}
						}
					}
				}
			}
		}
	}
}
MOTION
Frames: 6
Frame Time: 0.100000
0.834601 0.280666 -1.149136 -174.567473 4.542536 -31.240370 -10.034410 7.509891 26.776428 -1.156989 -10.452767 -8.005625 12.039298 9.098141 -0.273420 -18.406252 14.260686 -14.787188 -13.720923 -6.130602 14.051471 -5.557305 2.323812 59.558557 3.409240 -1.649904 16.769685 21.426372 -8.918463 -15.695118 5.870186 -5.139508 19.095586 -5.817265 5.145960 -1.237180 -1.004950 -0.837778 0.176747 -8.290952 -12.086714 4.374616 -4.370181 9.913753 -3.623810 -23.541975 13.975690 -4.538150 -57.878082 -27.586371 4.501028 120.746790 -35.805002 -98.083730 26.304945 5.680369 -41.776574 9.312510 0.805564 25.848551 21.581626 -2.125336 -0.798447 65.393100 0.078768 12.743314 -11.054618 7.647160 -27.657535 -15.649051 -6.136746 4.867545 -6.138545 4.066409 8.704682 
0.845650 0.259775 -1.075527 179.167321 7.549538 -31.644963 -4.346090 6.653244 31.627204 2.560176 -14.699839 -6.897084 6.539316 11.416012 -3.217806 -13.798179 10.897017 -13.187630 -4.948630 -3.804718 -0.775152 -8.059570 -7.984950 58.202340 -3.952323 -5.514795 2.156073 23.158261 -12.190569 -7.948557 4.765968 -9.599449 22.405849 -3.423312 3.212613 -3.715591 1.291504 -3.287877 -0.342164 -4.086946 -12.999740 7.366897 0.433939 6.865929 -1.995355 -22.122429 11.555021 -2.446591 -58.470185 -28.616100 5.412165 120.549188 -35.398300 -97.578927 23.435785 4.356791 -43.708209 14.478839 0.169182 25.913155 20.168907 -3.428730 -1.212036 66.149498 -2.730546 10.403001 -12.570604 8.442252 -24.671012 -12.507780 -5.727611 -2.549041 -11.580292 3.614788 13.015782 
0.857620 0.246408 -0.999063 174.834374 10.331915 -30.189522 1.501277 5.865800 34.489669 3.990428 -17.230191 -6.632642 3.700658 11.539818 -7.393626 -14.648811 7.712540 -8.738660 0.574831 -1.432385 -7.864503 -5.124285 -12.958662 30.594584 -4.012886 -0.337483 -3.158840 22.646628 -16.527364 0.564873 1.865240 -10.312091 23.361866 -1.593877 0.737151 -4.369548 3.444754 -4.680070 -1.264154 0.623993 -14.490245 11.021069 8.534869 2.744516 -1.201864 -21.227082 8.336216 -1.116149 -57.182098 -30.127652 6.819124 121.585951 -35.169691 -99.176981 24.254051 3.214112 -44.040198 14.347131 -0.550903 26.773503 20.286781 -4.149742 -0.774999 65.906224 -4.397849 8.290438 -12.598175 8.477709 -20.150417 -10.678995 -5.493866 -7.464653 -10.561267 4.640786 14.093483 
0.861115 0.235150 -0.901099 172.624994 12.855055 -29.649143 6.595075 5.695034 38.479302 3.900140 -19.080873 -4.260158 1.372436 10.338615 -11.379360 -15.957543 6.943436 -5.857410 3.993412 0.163527 -0.776805 -1.398449 -6.827860 -6.849676 -1.887210 6.491403 -5.366577 20.475512 -19.236727 6.722491 -0.113776 -9.165785 21.647351 -1.112335 -1.631282 -2.141029 4.605272 -5.363790 -1.999549 2.876645 -15.352101 13.358408 13.639180 0.623801 -1.359307 -21.470603 6.259409 -0.718289 -57.314061 -31.625490 8.441271 122.437858 -36.019998 -100.589776 24.545024 2.583426 -45.033088 12.249122 -1.070026 28.790759 20.763157 -4.808200 -0.730889 65.449161 -5.493979 6.626885 -11.653261 7.206483 -18.595907 -9.167300 -6.651003 -9.608681 -6.599227 5.626692 12.856480 
0.865953 0.214543 -0.776044 168.839350 15.767217 -30.293757 10.777302 2.660730 41.027657 5.272240 -19.717265 1.440276 -1.069841 11.477502 -7.526619 -17.043106 1.757816 -4.884193 8.466249 1.845505 1.574329 -0.908707 -5.928847 -0.383797 -5.614597 11.508388 -1.988314 29.139613 -25.179778 5.551644 -0.909404 -9.698437 18.871807 0.315205 -2.182502 -1.896382 5.291628 -5.750876 -3.912344 0.824561 -17.820999 19.305718 15.050769 1.549755 0.053569 -24.012115 5.565773 0.302911 -58.686249 -31.398834 11.055029 122.921923 -35.451045 -101.105499 24.969948 1.820319 -46.381718 12.257474 -1.232088 28.207113 22.601143 -5.512825 1.075223 61.991738 -7.021498 5.648493 -10.135415 4.342643 -15.690514 -8.436334 -6.636897 -12.112791 -7.430055 5.515211 14.265493 
0.863703 0.177754 -0.649402 164.594039 21.092116 -32.790233 17.580602 0.469115 34.203464 3.020492 -18.787538 20.604786 -11.204276 8.838784 9.304468 -10.843666 -1.594868 -11.991066 12.739002 -1.703780 10.387188 0.241285 -6.116369 -0.817507 -11.369470 10.369930 -3.267105 30.217379 -25.813461 4.573663 -1.853969 -8.951169 14.044946 1.074032 -4.385590 -1.126164 5.443892 -7.058820 -4.247669 -1.940410 -19.102608 24.062450 15.912048 1.741618 3.210673 -23.806002 7.453183 1.827210 -62.332878 -31.191545 12.530367 123.582045 -35.968266 -99.980518 25.127709 2.945054 -47.938282 12.221011 -1.452979 27.318450 21.934599 -8.773893 1.033117 62.895434 -8.320779 3.862549 -11.259406 4.912129 -14.645582 -8.444280 -6.853059 -16.325375 -7.638203 4.726729 16.385403 
